<svg fill="none" height="32" viewBox="0 0 32 32" width="32" xmlns="http://www.w3.org/2000/svg" xmlns:xlink="http://www.w3.org/1999/xlink"><linearGradient id="a" gradientUnits="userSpaceOnUse" x1="16" x2="16" y1="2" y2="30"><stop offset="0" stop-color="#2ac9fa"/><stop offset="1" stop-color="#1f65eb"/></linearGradient><circle cx="16" cy="16" fill="url(#a)" r="14"/><g fill="#fff"><path d="m18.4468 8.65403c.3026-.52817.1217-1.20277-.404-1.50676s-1.1972-.12225-1.4998.40591l-.5277.92124-.5278-.92124c-.3026-.52816-.9741-.7099-1.4998-.40591s-.7066.97859-.404 1.50676l1.1643 2.03237-3.6828 6.4285h-2.96689c-.60658 0-1.09831.494-1.09831 1.1034s.49173 1.1034 1.09831 1.1034h10.33409c.0906-.2392.186-.6496.0845-1.0268-.1525-.567-.7169-1.18-1.6627-1.18h-3.2545z"/><path d="m11.6364 20.5419c-.1874-.2091-.6072-.5432-.9754-.6531-.5613-.1677-.98687-.0625-1.20158.0291l-.8181 1.4281c-.30258.5281-.12169 1.2027.40403 1.5067s1.19715.1223 1.49975-.4059z"/><path d="m22.2295 19.3217h1.6722c.6066 0 1.0983-.494 1.0983-1.1034s-.4917-1.1034-1.0983-1.1034h-2.9364l-3.3078-5.7738c-.2457.2346-.7168.8339-.788 1.5134-.0915.8735.0457 1.6091.4576 2.3294 1.3847 2.4217 2.7716 4.8423 4.1583 7.2629.3026.5282.974.7099 1.4998.4059.5257-.304.7066-.9786.404-1.5067z"/></g></svg>